# xmcd
#
# Track frame offsets:
#	150
#	11700
#	25200
#	35550
#	48600
#	52050
#	64050
#	68100
#	83175
#	98250
#	109125
#	114000
#	119100
#	129150
#	133275
#	143775
#	163725
#	178431
#
# Disc length: 2584 seconds
#
# Revision: 0
# Processed by: cddbd v1.5.1PL2 Copyright (c) Steve Scherf et al.
# Submitted via: dBpowerAMP V4.0
#
DISCID=050a1612
DTITLE=Various Artist - 日本の民謡 其の三
DYEAR=1900
DGENRE=Country
TTITLE0=あんこ節（東京）
TTITLE1=いやさか音頭（北海道）
TTITLE2=おいとこ節（宮城）
TTITLE3=おこさ節（秋田）
TTITLE4=おばば（岐阜）
TTITLE5=かんちょろりん（福島）
TTITLE6=こつこつ節（大分）
TTITLE7=ナオハイ節（青森）
TTITLE8=ホーハイ節（青森）
TTITLE9=ドンパン節（秋田）
TTITLE10=伊勢音頭（三重）
TTITLE11=伊那節（長野）"
TTITLE12=伊予節（愛媛）
TTITLE13=塩田小唄（香川）
TTITLE14=外山節（岩手）
TTITLE15=さんさ時雨（宮城）
TTITLE16=博多節（福岡）
TTITLE17=道中馬方節（青森）
EXTD=Tracknames are written by Japanese.
EXTT0=
EXTT1=
EXTT2=
EXTT3=
EXTT4=
EXTT5=
EXTT6=
EXTT7=
EXTT8=
EXTT9=
EXTT10=
EXTT11=
EXTT12=
EXTT13=
EXTT14=
EXTT15=
EXTT16=
EXTT17=
PLAYORDER=
